<svg width="301" height="178" viewBox="0 0 301 178" fill="none" xmlns="http://www.w3.org/2000/svg">
  <path d="M150.218 2C210.254 2 247.445 15.288 269.561 28.4355C280.624 35.0127 287.94 41.5693 292.471 46.4453C294.737 48.8838 296.308 50.9041 297.304 52.2988C297.761 52.9392 298.096 53.449 298.322 53.8057C284.579 123.045 223.493 175.24 150.218 175.24C76.943 175.24 15.8569 123.045 2.11328 53.8057C2.33969 53.4489 2.67532 52.9394 3.13281 52.2988C4.12884 50.9041 5.69985 48.8838 7.96582 46.4453C12.4968 41.5693 19.8128 35.0127 30.876 28.4355C52.9912 15.288 90.1816 2.00007 150.218 2Z" fill="white"/>
  <path d="M150.218 2C210.254 2 247.445 15.288 269.561 28.4355C280.624 35.0127 287.94 41.5693 292.471 46.4453C294.737 48.8838 296.308 50.9041 297.304 52.2988C297.761 52.9392 298.096 53.449 298.322 53.8057C284.579 123.045 223.493 175.24 150.218 175.24C76.943 175.24 15.8569 123.045 2.11328 53.8057C2.33969 53.4489 2.67532 52.9394 3.13281 52.2988C4.12884 50.9041 5.69985 48.8838 7.96582 46.4453C12.4968 41.5693 19.8128 35.0127 30.876 28.4355C52.9912 15.288 90.1816 2.00007 150.218 2Z" fill="url(#g_back_bowl)" fill-opacity="0.7"/>
  <path d="M150.218 2C210.254 2 247.445 15.288 269.561 28.4355C280.624 35.0127 287.94 41.5693 292.471 46.4453C294.737 48.8838 296.308 50.9041 297.304 52.2988C297.761 52.9392 298.096 53.449 298.322 53.8057C284.579 123.045 223.493 175.24 150.218 175.24C76.943 175.24 15.8569 123.045 2.11328 53.8057C2.33969 53.4489 2.67532 52.9394 3.13281 52.2988C4.12884 50.9041 5.69985 48.8838 7.96582 46.4453C12.4968 41.5693 19.8128 35.0127 30.876 28.4355C52.9912 15.288 90.1816 2.00007 150.218 2Z" stroke="#D3D35B" stroke-width="4"/>
  <defs>
    <linearGradient id="g_back_bowl" x1="0" y1="88.6201" x2="300.436" y2="88.6201" gradientUnits="userSpaceOnUse">
      <stop stop-color="#ECEC88"/>
      <stop offset="1" stop-color="#C7C715"/>
    </linearGradient>
  </defs>
</svg>
