<svg width="456" height="307" viewBox="0 0 456 307" fill="none" xmlns="http://www.w3.org/2000/svg">
<path d="M303 9.12253e-07C387.5 1.41608e-06 456 68.5004 456 153C456 163.193 455 173.153 453.099 182.788C450.246 185.119 395.816 228.566 300.695 228.566C205.711 228.566 155.653 185.244 152.902 182.799C151 173.16 150 163.197 150 153C150 68.5004 218.5 4.0843e-07 303 9.12253e-07Z" fill="white" fill-opacity="0.5"/>
<path d="M303 9.12253e-07C387.5 1.41608e-06 456 68.5004 456 153C456 163.193 455 173.153 453.099 182.788C450.246 185.119 395.816 228.566 300.695 228.566C205.711 228.566 155.653 185.244 152.902 182.799C151 173.16 150 163.197 150 153C150 68.5004 218.5 4.0843e-07 303 9.12253e-07Z" fill="url(#paint0_linear_52_239)" fill-opacity="0.5"/>
<path d="M302.998 130.878C363.034 130.878 400.225 144.166 422.34 157.314C433.404 163.891 440.719 170.448 445.25 175.324C447.516 177.762 449.087 179.783 450.083 181.177C450.541 181.818 450.876 182.327 451.102 182.684C437.358 251.923 376.272 304.119 302.998 304.119C229.723 304.118 168.637 251.923 154.893 182.684C155.119 182.327 155.455 181.818 155.913 181.177C156.909 179.783 158.48 177.762 160.746 175.324C165.277 170.448 172.593 163.891 183.656 157.314C205.771 144.166 242.961 130.878 302.998 130.878Z" fill="white"/>
<path d="M302.998 130.878C363.034 130.878 400.225 144.166 422.34 157.314C433.404 163.891 440.719 170.448 445.25 175.324C447.516 177.762 449.087 179.783 450.083 181.177C450.541 181.818 450.876 182.327 451.102 182.684C437.358 251.923 376.272 304.119 302.998 304.119C229.723 304.118 168.637 251.923 154.893 182.684C155.119 182.327 155.455 181.818 155.913 181.177C156.909 179.783 158.48 177.762 160.746 175.324C165.277 170.448 172.593 163.891 183.656 157.314C205.771 144.166 242.961 130.878 302.998 130.878Z" fill="url(#paint1_linear_52_239)" fill-opacity="0.7"/>
<path d="M302.998 130.878C363.034 130.878 400.225 144.166 422.34 157.314C433.404 163.891 440.719 170.448 445.25 175.324C447.516 177.762 449.087 179.783 450.083 181.177C450.541 181.818 450.876 182.327 451.102 182.684C437.358 251.923 376.272 304.119 302.998 304.119C229.723 304.118 168.637 251.923 154.893 182.684C155.119 182.327 155.455 181.818 155.913 181.177C156.909 179.783 158.48 177.762 160.746 175.324C165.277 170.448 172.593 163.891 183.656 157.314C205.771 144.166 242.961 130.878 302.998 130.878Z" stroke="#D3D35B" stroke-width="4"/>
<defs>
<linearGradient id="paint0_linear_52_239" x1="150" y1="116.442" x2="456" y2="116.442" gradientUnits="userSpaceOnUse">
<stop stop-color="#D9D9D9"/>
<stop offset="1" stop-color="#EFEFEF"/>
</linearGradient>
<linearGradient id="paint1_linear_52_239" x1="152.78" y1="217.499" x2="453.216" y2="217.499" gradientUnits="userSpaceOnUse">
<stop stop-color="#ECEC88"/>
<stop offset="1" stop-color="#C7C715"/>
</linearGradient>
</defs>
</svg>
