<svg width="566" height="357" viewBox="0 0 566 357" fill="none" xmlns="http://www.w3.org/2000/svg">
<path d="M40.3845 219.894C-13.4617 166.048 -13.4612 78.7455 40.3851 24.8992C50.6381 14.6463 62.1052 6.34825 74.3221 -0.00010312C100.715 7.17916 147.1 25.4542 192.593 70.9467C237.063 115.417 254.176 159.39 260.727 185.095C254.323 197.636 245.874 209.4 235.38 219.894C181.534 273.741 94.2309 273.741 40.3845 219.894Z" fill="url(#paint0_linear_56_29)" fill-opacity="0.8"/>
<path d="M562.164 211.08C546.736 278.094 486.708 328.064 415.011 328.064C343.422 328.064 283.467 278.243 267.929 211.382C269.31 212.434 271.009 213.679 273.024 215.07C279.338 219.429 288.762 225.222 301.256 231.009C326.249 242.585 363.513 254.131 412.707 254.131C461.898 254.131 500.304 242.586 526.431 231.022C539.493 225.241 549.488 219.456 556.228 215.105C558.618 213.563 560.599 212.198 562.164 211.08Z" fill="#ECEC88" fill-opacity="0.7" stroke="#D3D35B" stroke-width="4"/>
<defs>
<linearGradient id="paint0_linear_56_29" x1="137.882" y1="317.392" x2="137.882" y2="-72.5984" gradientUnits="userSpaceOnUse">
<stop stop-color="white"/>
<stop offset="0.1875" stop-color="white"/>
<stop offset="0.447115" stop-color="#F7F7F7" stop-opacity="0"/>
</linearGradient>
</defs>
</svg>
