<svg width="454" height="291" viewBox="0 0 454 291" fill="none" xmlns="http://www.w3.org/2000/svg">
<path d="M302.883 8.22118e-07C379.033 0.000199194 440.765 61.7326 440.765 137.883C440.765 152.383 438.524 166.359 434.374 179.486C410.635 193.072 364.913 212.949 300.577 212.949C237.687 212.949 194.492 193.956 171.684 180.412C167.344 167.017 165 152.724 165 137.883C165 61.7324 226.732 3.68076e-07 302.883 8.22118e-07Z" fill="url(#paint0_linear_52_247)" fill-opacity="0.8"/>
<path d="M450.152 171.634C434.725 238.647 374.696 288.618 303 288.618C231.411 288.618 171.456 238.797 155.918 171.936C157.299 172.988 158.997 174.233 161.012 175.624C167.327 179.982 176.751 185.776 189.245 191.562C214.238 203.139 251.502 214.685 300.695 214.685C349.886 214.685 388.292 203.14 414.42 191.576C427.482 185.795 437.476 180.01 444.217 175.659C446.607 174.116 448.588 172.752 450.152 171.634Z" fill="#ECEC88" fill-opacity="0.7" stroke="#D3D35B" stroke-width="4"/>
<defs>
<linearGradient id="paint0_linear_52_247" x1="165" y1="0" x2="440.765" y2="275.765" gradientUnits="userSpaceOnUse">
<stop stop-color="white"/>
<stop offset="0.1875" stop-color="white"/>
<stop offset="0.447115" stop-color="#F7F7F7" stop-opacity="0"/>
</linearGradient>
</defs>
</svg>
