<svg width="306" height="229" viewBox="0 0 306 229" fill="none" xmlns="http://www.w3.org/2000/svg">
  <path d="M153 9.12253e-07C237.5 1.41608e-06 306 68.5004 306 153C306 163.193 305 173.153 303.099 182.788C300.246 185.119 245.816 228.566 150.695 228.566C55.7113 228.566 5.65253 185.244 2.90234 182.799C0.999598 173.16 -9.73051e-07 163.197 -9.12253e-07 153C-4.0843e-07 68.5004 68.5004 4.0843e-07 153 9.12253e-07Z" fill="white" fill-opacity="0.34"/>
  <path d="M153 9.12253e-07C237.5 1.41608e-06 306 68.5004 306 153C306 163.193 305 173.153 303.099 182.788C300.246 185.119 245.816 228.566 150.695 228.566C55.7113 228.566 5.65253 185.244 2.90234 182.799C0.999598 173.16 -9.73051e-07 163.197 -9.12253e-07 153C-4.0843e-07 68.5004 68.5004 4.0843e-07 153 9.12253e-07Z" fill="url(#g_back_dome)" fill-opacity="0.34"/>
  <defs>
    <linearGradient id="g_back_dome" x1="0" y1="116.442" x2="306" y2="116.442" gradientUnits="userSpaceOnUse">
      <stop stop-color="#D9D9D9"/>
      <stop offset="1" stop-color="#EFEFEF"/>
    </linearGradient>
  </defs>
</svg>
