<svg width="582" height="361" viewBox="0 0 582 361" fill="none" xmlns="http://www.w3.org/2000/svg">
<path d="M44.8127 235.386C-14.9376 175.636 -14.9376 78.7619 44.8127 19.0117C52.0203 11.8041 59.7699 5.46866 67.9276 -5.73678e-05C71.5928 0.368386 140.803 8.13509 208.063 75.3952C275.227 142.559 279.991 208.589 280.206 212.263C274.736 220.424 268.398 228.176 261.187 235.386C201.437 295.137 104.563 295.137 44.8127 235.386Z" fill="white" fill-opacity="0.5"/>
<path d="M44.8127 235.386C-14.9376 175.636 -14.9376 78.7619 44.8127 19.0117C52.0203 11.8041 59.7699 5.46866 67.9276 -5.73678e-05C71.5928 0.368386 140.803 8.13509 208.063 75.3952C275.227 142.559 279.991 208.589 280.206 212.263C274.736 220.424 268.398 228.176 261.187 235.386C201.437 295.137 104.563 295.137 44.8127 235.386Z" fill="url(#paint0_linear_56_20)" fill-opacity="0.5"/>
<path d="M430.831 158.593C490.867 158.593 528.058 171.881 550.174 185.029C561.237 191.606 568.553 198.163 573.084 203.039C575.35 205.477 576.921 207.497 577.917 208.892C578.374 209.532 578.709 210.042 578.935 210.399C565.192 279.638 504.106 331.833 430.831 331.833C357.556 331.833 296.47 279.638 282.726 210.399C282.953 210.042 283.288 209.533 283.746 208.892C284.742 207.497 286.313 205.477 288.579 203.039C293.11 198.163 300.426 191.606 311.489 185.029C333.604 171.881 370.795 158.593 430.831 158.593Z" fill="white"/>
<path d="M430.831 158.593C490.867 158.593 528.058 171.881 550.174 185.029C561.237 191.606 568.553 198.163 573.084 203.039C575.35 205.477 576.921 207.497 577.917 208.892C578.374 209.532 578.709 210.042 578.935 210.399C565.192 279.638 504.106 331.833 430.831 331.833C357.556 331.833 296.47 279.638 282.726 210.399C282.953 210.042 283.288 209.533 283.746 208.892C284.742 207.497 286.313 205.477 288.579 203.039C293.11 198.163 300.426 191.606 311.489 185.029C333.604 171.881 370.795 158.593 430.831 158.593Z" fill="url(#paint1_linear_56_20)" fill-opacity="0.7"/>
<path d="M430.831 158.593C490.867 158.593 528.058 171.881 550.174 185.029C561.237 191.606 568.553 198.163 573.084 203.039C575.35 205.477 576.921 207.497 577.917 208.892C578.374 209.532 578.709 210.042 578.935 210.399C565.192 279.638 504.106 331.833 430.831 331.833C357.556 331.833 296.47 279.638 282.726 210.399C282.953 210.042 283.288 209.533 283.746 208.892C284.742 207.497 286.313 205.477 288.579 203.039C293.11 198.163 300.426 191.606 311.489 185.029C333.604 171.881 370.795 158.593 430.831 158.593Z" stroke="#D3D35B" stroke-width="4"/>
<defs>
<linearGradient id="paint0_linear_56_20" x1="235.337" y1="261.237" x2="18.9624" y2="44.8619" gradientUnits="userSpaceOnUse">
<stop stop-color="#D9D9D9"/>
<stop offset="1" stop-color="#EFEFEF"/>
</linearGradient>
<linearGradient id="paint1_linear_56_20" x1="280.613" y1="245.213" x2="581.05" y2="245.213" gradientUnits="userSpaceOnUse">
<stop stop-color="#ECEC88"/>
<stop offset="1" stop-color="#C7C715"/>
</linearGradient>
</defs>
</svg>
